<svg xmlns="http://www.w3.org/2000/svg" height="24" viewBox="0 -960 960 960" width="24"><path d="M246.783-60.782q-44.305 0-75.153-30.848-30.848-30.848-30.848-75.153v-626.434q0-44.305 30.848-75.153 30.848-30.848 75.153-30.848h277.391q21.087 0 40.392 7.978 19.304 7.978 34.261 22.935l189.478 189.478q14.957 14.957 22.935 34.261 7.978 19.305 7.978 40.392v437.391q0 44.305-30.848 75.153-30.848 30.848-75.153 30.848H246.783Zm266.434-585.436q0 22.088 15.457 37.544 15.456 15.457 37.544 15.457h146.999l-200-200v146.999Zm-75.652 279.913-53.174-53.174q-6.565-6.565-14.695-9.848-8.131-3.282-16.479-3.282-8.347 0-16.695 3.282-8.348 3.283-14.913 9.848-13.131 13.131-13.131 31.609 0 18.479 13.131 31.609l78.782 79.217q7.696 7.696 17.522 11.609 9.826 3.913 20.087 3.913t20.087-3.913q9.826-3.913 17.522-11.609l162.782-162.782q13.131-13.131 13.131-31.826 0-18.696-13.131-31.827-13.13-13.13-31.826-13.13-18.695 0-31.826 13.13L437.565-366.305Z"/></svg>